<svg xmlns="http://www.w3.org/2000/svg" viewBox="0 0 24 24" width="24" height="24" fill="#000000" style="opacity:1;"><path  d="M17.583.063a1.5 1.5 0 0 0-1.032.392h-.001L16.5.5L8.528 9.316L3.875 5.5l-.407-.35a1 1 0 0 0-1.024-.154l-.012.005l-1.817.75l-.077.036l-.047.028l-.038.022l-.048.034l-.03.024l-.044.036l-.036.033l-.032.035l-.033.038l-.035.044l-.024.034l-.032.05l-.02.035l-.024.05l-.02.045l-.016.044l-.016.047l-.015.055l-.01.04l-.008.054l-.006.05L0 6.668v10.666a1 1 0 0 0 .615.917l1.817.764a1 1 0 0 0 1.035-.164l.408-.35l4.653-3.815l7.973 8.815l.072.065l.057.05l.058.042l.063.044l.065.038l.065.036l.068.031l.07.03l.073.025l.066.02l.08.02l.068.014l.075.01l.075.008l.073.003h.077l.078-.005l.067-.007l.087-.015l.06-.012l.08-.022l.068-.02l.07-.028l.09-.037l4.944-2.377a1.5 1.5 0 0 0 .476-.362a2 2 0 0 0 .09-.112l.004-.007a2 2 0 0 0 .08-.125a2 2 0 0 0 .062-.12l.009-.017l.04-.108l.015-.037l.03-.107l.009-.037l.017-.1l.008-.05l.006-.09l.004-.08V3.907a2 2 0 0 0-.01-.15a1.5 1.5 0 0 0-.84-1.17L18.206.21a1.5 1.5 0 0 0-.622-.146zM18 6.92v10.163l-6.198-5.08zM3 8.574l3.099 3.427l-3.1 3.426z"/></svg>